<svg width="1001" height="205" viewBox="0 0 1001 205" fill="none" xmlns="http://www.w3.org/2000/svg">
<g clip-path="url(#clip0_143_165907)">
<rect width="1001" height="205" fill="#229B90"/>
<path d="M1298 95C1299.01 186.867 1053.6 234.68 933.5 236C790 236 708.253 133.069 707.244 41.2027C706.235 -50.664 802.78 -126.206 922.884 -127.526C1042.99 -128.845 1296.99 3.13327 1298 95Z" fill="#1A887D"/>
<path d="M60.223 89L55.636 79.991H53.26V89H48.673V65.603H57.814C60.058 65.603 61.862 66.285 63.226 67.649C64.59 69.013 65.272 70.729 65.272 72.797C65.272 74.425 64.821 75.833 63.919 77.021C63.039 78.187 61.829 78.99 60.289 79.43L65.305 89H60.223ZM53.26 76.064H56.956C58.1 76.064 58.991 75.767 59.629 75.173C60.289 74.579 60.619 73.798 60.619 72.83C60.619 71.84 60.289 71.048 59.629 70.454C58.991 69.86 58.1 69.563 56.956 69.563H53.26V76.064ZM71.7178 79.034H78.9778C78.9338 78.132 78.6038 77.373 77.9878 76.757C77.3938 76.141 76.5138 75.833 75.3478 75.833C74.2918 75.833 73.4338 76.163 72.7738 76.823C72.1138 77.483 71.7618 78.22 71.7178 79.034ZM79.4068 83.258L83.0698 84.347C82.6298 85.843 81.7608 87.075 80.4628 88.043C79.1868 89.011 77.5918 89.495 75.6778 89.495C73.3458 89.495 71.3658 88.714 69.7378 87.152C68.1098 85.568 67.2958 83.456 67.2958 80.816C67.2958 78.308 68.0878 76.262 69.6718 74.678C71.2558 73.072 73.1258 72.269 75.2818 72.269C77.7898 72.269 79.7478 73.017 81.1558 74.513C82.5858 76.009 83.3008 78.066 83.3008 80.684C83.3008 80.86 83.2898 81.058 83.2678 81.278C83.2678 81.498 83.2678 81.674 83.2678 81.806L83.2348 82.037H71.6188C71.6628 83.093 72.0808 83.973 72.8728 84.677C73.6648 85.381 74.6108 85.733 75.7108 85.733C77.5808 85.733 78.8128 84.908 79.4068 83.258ZM94.0501 76.328C92.8841 76.328 91.9051 76.735 91.1131 77.549C90.3211 78.363 89.9251 79.474 89.9251 80.882C89.9251 82.29 90.3211 83.412 91.1131 84.248C91.9271 85.062 92.9171 85.469 94.0831 85.469C95.1171 85.469 95.9421 85.205 96.5581 84.677C97.1741 84.127 97.5921 83.478 97.8121 82.73L101.673 84.017C101.277 85.513 100.419 86.8 99.0991 87.878C97.7791 88.956 96.1071 89.495 94.0831 89.495C91.6631 89.495 89.6281 88.681 87.9781 87.053C86.3501 85.403 85.5361 83.346 85.5361 80.882C85.5361 78.396 86.3391 76.339 87.9451 74.711C89.5731 73.083 91.5751 72.269 93.9511 72.269C96.0191 72.269 97.7131 72.808 99.0331 73.886C100.353 74.942 101.2 76.229 101.574 77.747L97.6471 79.067C97.1191 77.241 95.9201 76.328 94.0501 76.328ZM109.095 84.281C109.909 85.095 110.888 85.502 112.032 85.502C113.176 85.502 114.144 85.095 114.936 84.281C115.75 83.467 116.157 82.334 116.157 80.882C116.157 79.43 115.75 78.297 114.936 77.483C114.144 76.669 113.176 76.262 112.032 76.262C110.888 76.262 109.909 76.669 109.095 77.483C108.303 78.297 107.907 79.43 107.907 80.882C107.907 82.334 108.303 83.467 109.095 84.281ZM105.927 74.711C107.555 73.083 109.59 72.269 112.032 72.269C114.474 72.269 116.498 73.083 118.104 74.711C119.732 76.339 120.546 78.396 120.546 80.882C120.546 83.368 119.732 85.425 118.104 87.053C116.498 88.681 114.474 89.495 112.032 89.495C109.59 89.495 107.555 88.681 105.927 87.053C104.321 85.425 103.518 83.368 103.518 80.882C103.518 78.396 104.321 76.339 105.927 74.711ZM128.4 79.661V89H124.011V72.764H128.268V74.777C128.73 73.985 129.39 73.38 130.248 72.962C131.106 72.544 132.008 72.335 132.954 72.335C134.868 72.335 136.32 72.94 137.31 74.15C138.322 75.338 138.828 76.878 138.828 78.77V89H134.439V79.529C134.439 78.561 134.186 77.78 133.68 77.186C133.196 76.592 132.448 76.295 131.436 76.295C130.512 76.295 129.775 76.614 129.225 77.252C128.675 77.89 128.4 78.693 128.4 79.661ZM147.671 79.661V89H143.282V72.764H147.539V74.777C148.001 73.985 148.661 73.38 149.519 72.962C150.377 72.544 151.279 72.335 152.225 72.335C154.139 72.335 155.591 72.94 156.581 74.15C157.593 75.338 158.099 76.878 158.099 78.77V89H153.71V79.529C153.71 78.561 153.457 77.78 152.951 77.186C152.467 76.592 151.719 76.295 150.707 76.295C149.783 76.295 149.046 76.614 148.496 77.252C147.946 77.89 147.671 78.693 147.671 79.661ZM161.564 84.578C161.564 83.192 162.015 82.081 162.917 81.245C163.819 80.409 164.985 79.881 166.415 79.661L170.408 79.067C171.222 78.957 171.629 78.572 171.629 77.912C171.629 77.296 171.387 76.79 170.903 76.394C170.441 75.998 169.77 75.8 168.89 75.8C167.966 75.8 167.229 76.053 166.679 76.559C166.151 77.065 165.854 77.692 165.788 78.44L161.894 77.615C162.048 76.207 162.741 74.964 163.973 73.886C165.205 72.808 166.833 72.269 168.857 72.269C171.277 72.269 173.059 72.852 174.203 74.018C175.347 75.162 175.919 76.636 175.919 78.44V86.426C175.919 87.394 175.985 88.252 176.117 89H172.091C171.981 88.516 171.926 87.867 171.926 87.053C170.892 88.659 169.297 89.462 167.141 89.462C165.469 89.462 164.116 88.978 163.082 88.01C162.07 87.042 161.564 85.898 161.564 84.578ZM168.065 86.195C169.099 86.195 169.946 85.909 170.606 85.337C171.288 84.743 171.629 83.775 171.629 82.433V81.707L167.966 82.268C166.624 82.466 165.953 83.148 165.953 84.314C165.953 84.842 166.14 85.293 166.514 85.667C166.888 86.019 167.405 86.195 168.065 86.195ZM184.732 89H180.343V72.764H184.732V89ZM179.815 67.451C179.815 66.703 180.079 66.065 180.607 65.537C181.135 64.987 181.773 64.712 182.521 64.712C183.269 64.712 183.907 64.976 184.435 65.504C184.963 66.032 185.227 66.681 185.227 67.451C185.227 68.177 184.963 68.804 184.435 69.332C183.907 69.86 183.269 70.124 182.521 70.124C181.773 70.124 181.135 69.86 180.607 69.332C180.079 68.804 179.815 68.177 179.815 67.451ZM188.045 84.479L191.807 83.654C191.851 84.358 192.126 84.952 192.632 85.436C193.16 85.898 193.875 86.129 194.777 86.129C195.459 86.129 195.987 85.975 196.361 85.667C196.735 85.359 196.922 84.974 196.922 84.512C196.922 83.698 196.339 83.17 195.173 82.928L193.028 82.433C191.51 82.103 190.366 81.509 189.596 80.651C188.848 79.793 188.474 78.77 188.474 77.582C188.474 76.108 189.046 74.854 190.19 73.82C191.356 72.786 192.808 72.269 194.546 72.269C195.646 72.269 196.614 72.434 197.45 72.764C198.286 73.072 198.935 73.479 199.397 73.985C199.859 74.469 200.211 74.964 200.453 75.47C200.695 75.976 200.849 76.471 200.915 76.955L197.252 77.78C197.164 77.208 196.9 76.702 196.46 76.262C196.042 75.822 195.415 75.602 194.579 75.602C194.007 75.602 193.512 75.756 193.094 76.064C192.698 76.372 192.5 76.757 192.5 77.219C192.5 78.011 192.995 78.495 193.985 78.671L196.295 79.166C197.857 79.496 199.045 80.101 199.859 80.981C200.695 81.861 201.113 82.917 201.113 84.149C201.113 85.601 200.563 86.855 199.463 87.911C198.363 88.967 196.812 89.495 194.81 89.495C193.666 89.495 192.643 89.33 191.741 89C190.839 88.648 190.135 88.208 189.629 87.68C189.145 87.13 188.771 86.591 188.507 86.063C188.265 85.513 188.111 84.985 188.045 84.479ZM203.256 84.479L207.018 83.654C207.062 84.358 207.337 84.952 207.843 85.436C208.371 85.898 209.086 86.129 209.988 86.129C210.67 86.129 211.198 85.975 211.572 85.667C211.946 85.359 212.133 84.974 212.133 84.512C212.133 83.698 211.55 83.17 210.384 82.928L208.239 82.433C206.721 82.103 205.577 81.509 204.807 80.651C204.059 79.793 203.685 78.77 203.685 77.582C203.685 76.108 204.257 74.854 205.401 73.82C206.567 72.786 208.019 72.269 209.757 72.269C210.857 72.269 211.825 72.434 212.661 72.764C213.497 73.072 214.146 73.479 214.608 73.985C215.07 74.469 215.422 74.964 215.664 75.47C215.906 75.976 216.06 76.471 216.126 76.955L212.463 77.78C212.375 77.208 212.111 76.702 211.671 76.262C211.253 75.822 210.626 75.602 209.79 75.602C209.218 75.602 208.723 75.756 208.305 76.064C207.909 76.372 207.711 76.757 207.711 77.219C207.711 78.011 208.206 78.495 209.196 78.671L211.506 79.166C213.068 79.496 214.256 80.101 215.07 80.981C215.906 81.861 216.324 82.917 216.324 84.149C216.324 85.601 215.774 86.855 214.674 87.911C213.574 88.967 212.023 89.495 210.021 89.495C208.877 89.495 207.854 89.33 206.952 89C206.05 88.648 205.346 88.208 204.84 87.68C204.356 87.13 203.982 86.591 203.718 86.063C203.476 85.513 203.322 84.985 203.256 84.479ZM218.734 84.578C218.734 83.192 219.185 82.081 220.087 81.245C220.989 80.409 222.155 79.881 223.585 79.661L227.578 79.067C228.392 78.957 228.799 78.572 228.799 77.912C228.799 77.296 228.557 76.79 228.073 76.394C227.611 75.998 226.94 75.8 226.06 75.8C225.136 75.8 224.399 76.053 223.849 76.559C223.321 77.065 223.024 77.692 222.958 78.44L219.064 77.615C219.218 76.207 219.911 74.964 221.143 73.886C222.375 72.808 224.003 72.269 226.027 72.269C228.447 72.269 230.229 72.852 231.373 74.018C232.517 75.162 233.089 76.636 233.089 78.44V86.426C233.089 87.394 233.155 88.252 233.287 89H229.261C229.151 88.516 229.096 87.867 229.096 87.053C228.062 88.659 226.467 89.462 224.311 89.462C222.639 89.462 221.286 88.978 220.252 88.01C219.24 87.042 218.734 85.898 218.734 84.578ZM225.235 86.195C226.269 86.195 227.116 85.909 227.776 85.337C228.458 84.743 228.799 83.775 228.799 82.433V81.707L225.136 82.268C223.794 82.466 223.123 83.148 223.123 84.314C223.123 84.842 223.31 85.293 223.684 85.667C224.058 86.019 224.575 86.195 225.235 86.195ZM241.902 79.661V89H237.513V72.764H241.77V74.777C242.232 73.985 242.892 73.38 243.75 72.962C244.608 72.544 245.51 72.335 246.456 72.335C248.37 72.335 249.822 72.94 250.812 74.15C251.824 75.338 252.33 76.878 252.33 78.77V89H247.941V79.529C247.941 78.561 247.688 77.78 247.182 77.186C246.698 76.592 245.95 76.295 244.938 76.295C244.014 76.295 243.277 76.614 242.727 77.252C242.177 77.89 241.902 78.693 241.902 79.661ZM264.077 76.328C262.911 76.328 261.932 76.735 261.14 77.549C260.348 78.363 259.952 79.474 259.952 80.882C259.952 82.29 260.348 83.412 261.14 84.248C261.954 85.062 262.944 85.469 264.11 85.469C265.144 85.469 265.969 85.205 266.585 84.677C267.201 84.127 267.619 83.478 267.839 82.73L271.7 84.017C271.304 85.513 270.446 86.8 269.126 87.878C267.806 88.956 266.134 89.495 264.11 89.495C261.69 89.495 259.655 88.681 258.005 87.053C256.377 85.403 255.563 83.346 255.563 80.882C255.563 78.396 256.366 76.339 257.972 74.711C259.6 73.083 261.602 72.269 263.978 72.269C266.046 72.269 267.74 72.808 269.06 73.886C270.38 74.942 271.227 76.229 271.601 77.747L267.674 79.067C267.146 77.241 265.947 76.328 264.077 76.328ZM277.968 79.034H285.228C285.184 78.132 284.854 77.373 284.238 76.757C283.644 76.141 282.764 75.833 281.598 75.833C280.542 75.833 279.684 76.163 279.024 76.823C278.364 77.483 278.012 78.22 277.968 79.034ZM285.657 83.258L289.32 84.347C288.88 85.843 288.011 87.075 286.713 88.043C285.437 89.011 283.842 89.495 281.928 89.495C279.596 89.495 277.616 88.714 275.988 87.152C274.36 85.568 273.546 83.456 273.546 80.816C273.546 78.308 274.338 76.262 275.922 74.678C277.506 73.072 279.376 72.269 281.532 72.269C284.04 72.269 285.998 73.017 287.406 74.513C288.836 76.009 289.551 78.066 289.551 80.684C289.551 80.86 289.54 81.058 289.518 81.278C289.518 81.498 289.518 81.674 289.518 81.806L289.485 82.037H277.869C277.913 83.093 278.331 83.973 279.123 84.677C279.915 85.381 280.861 85.733 281.961 85.733C283.831 85.733 285.063 84.908 285.657 83.258ZM316.637 65.108V86.063C316.637 87.141 316.681 88.12 316.769 89H312.578C312.468 88.45 312.413 87.823 312.413 87.119C312.039 87.801 311.445 88.351 310.631 88.769C309.839 89.187 308.915 89.396 307.859 89.396C305.549 89.396 303.646 88.593 302.15 86.987C300.676 85.359 299.939 83.313 299.939 80.849C299.939 78.451 300.665 76.438 302.117 74.81C303.591 73.182 305.461 72.368 307.727 72.368C310.059 72.368 311.588 73.039 312.314 74.381V65.108H316.637ZM304.361 80.849C304.361 82.279 304.735 83.412 305.483 84.248C306.231 85.062 307.199 85.469 308.387 85.469C309.553 85.469 310.51 85.051 311.258 84.215C312.006 83.379 312.38 82.246 312.38 80.816C312.38 79.408 312.006 78.308 311.258 77.516C310.51 76.702 309.553 76.295 308.387 76.295C307.221 76.295 306.253 76.702 305.483 77.516C304.735 78.33 304.361 79.441 304.361 80.849ZM324.6 79.034H331.86C331.816 78.132 331.486 77.373 330.87 76.757C330.276 76.141 329.396 75.833 328.23 75.833C327.174 75.833 326.316 76.163 325.656 76.823C324.996 77.483 324.644 78.22 324.6 79.034ZM332.289 83.258L335.952 84.347C335.512 85.843 334.643 87.075 333.345 88.043C332.069 89.011 330.474 89.495 328.56 89.495C326.228 89.495 324.248 88.714 322.62 87.152C320.992 85.568 320.178 83.456 320.178 80.816C320.178 78.308 320.97 76.262 322.554 74.678C324.138 73.072 326.008 72.269 328.164 72.269C330.672 72.269 332.63 73.017 334.038 74.513C335.468 76.009 336.183 78.066 336.183 80.684C336.183 80.86 336.172 81.058 336.15 81.278C336.15 81.498 336.15 81.674 336.15 81.806L336.117 82.037H324.501C324.545 83.093 324.963 83.973 325.755 84.677C326.547 85.381 327.493 85.733 328.593 85.733C330.463 85.733 331.695 84.908 332.289 83.258ZM355.085 76.328C353.919 76.328 352.94 76.735 352.148 77.549C351.356 78.363 350.96 79.474 350.96 80.882C350.96 82.29 351.356 83.412 352.148 84.248C352.962 85.062 353.952 85.469 355.118 85.469C356.152 85.469 356.977 85.205 357.593 84.677C358.209 84.127 358.627 83.478 358.847 82.73L362.708 84.017C362.312 85.513 361.454 86.8 360.134 87.878C358.814 88.956 357.142 89.495 355.118 89.495C352.698 89.495 350.663 88.681 349.013 87.053C347.385 85.403 346.571 83.346 346.571 80.882C346.571 78.396 347.374 76.339 348.98 74.711C350.608 73.083 352.61 72.269 354.986 72.269C357.054 72.269 358.748 72.808 360.068 73.886C361.388 74.942 362.235 76.229 362.609 77.747L358.682 79.067C358.154 77.241 356.955 76.328 355.085 76.328ZM364.881 84.578C364.881 83.192 365.332 82.081 366.234 81.245C367.136 80.409 368.302 79.881 369.732 79.661L373.725 79.067C374.539 78.957 374.946 78.572 374.946 77.912C374.946 77.296 374.704 76.79 374.22 76.394C373.758 75.998 373.087 75.8 372.207 75.8C371.283 75.8 370.546 76.053 369.996 76.559C369.468 77.065 369.171 77.692 369.105 78.44L365.211 77.615C365.365 76.207 366.058 74.964 367.29 73.886C368.522 72.808 370.15 72.269 372.174 72.269C374.594 72.269 376.376 72.852 377.52 74.018C378.664 75.162 379.236 76.636 379.236 78.44V86.426C379.236 87.394 379.302 88.252 379.434 89H375.408C375.298 88.516 375.243 87.867 375.243 87.053C374.209 88.659 372.614 89.462 370.458 89.462C368.786 89.462 367.433 88.978 366.399 88.01C365.387 87.042 364.881 85.898 364.881 84.578ZM371.382 86.195C372.416 86.195 373.263 85.909 373.923 85.337C374.605 84.743 374.946 83.775 374.946 82.433V81.707L371.283 82.268C369.941 82.466 369.27 83.148 369.27 84.314C369.27 84.842 369.457 85.293 369.831 85.667C370.205 86.019 370.722 86.195 371.382 86.195ZM388.049 89H383.66V65.108H388.049V89ZM400.041 76.328C398.875 76.328 397.896 76.735 397.104 77.549C396.312 78.363 395.916 79.474 395.916 80.882C395.916 82.29 396.312 83.412 397.104 84.248C397.918 85.062 398.908 85.469 400.074 85.469C401.108 85.469 401.933 85.205 402.549 84.677C403.165 84.127 403.583 83.478 403.803 82.73L407.664 84.017C407.268 85.513 406.41 86.8 405.09 87.878C403.77 88.956 402.098 89.495 400.074 89.495C397.654 89.495 395.619 88.681 393.969 87.053C392.341 85.403 391.527 83.346 391.527 80.882C391.527 78.396 392.33 76.339 393.936 74.711C395.564 73.083 397.566 72.269 399.942 72.269C402.01 72.269 403.704 72.808 405.024 73.886C406.344 74.942 407.191 76.229 407.565 77.747L403.638 79.067C403.11 77.241 401.911 76.328 400.041 76.328ZM421.26 89C421.172 88.56 421.128 87.977 421.128 87.251C420.71 87.977 420.083 88.527 419.247 88.901C418.433 89.253 417.564 89.429 416.64 89.429C414.726 89.429 413.219 88.824 412.119 87.614C411.019 86.382 410.469 84.853 410.469 83.027V72.764H414.858V82.136C414.858 83.104 415.111 83.896 415.617 84.512C416.123 85.106 416.86 85.403 417.828 85.403C418.774 85.403 419.522 85.117 420.072 84.545C420.622 83.951 420.897 83.17 420.897 82.202V72.764H425.286V86.063C425.286 87.097 425.341 88.076 425.451 89H421.26ZM434.359 89H429.97V65.108H434.359V89ZM437.672 84.479L441.434 83.654C441.478 84.358 441.753 84.952 442.259 85.436C442.787 85.898 443.502 86.129 444.404 86.129C445.086 86.129 445.614 85.975 445.988 85.667C446.362 85.359 446.549 84.974 446.549 84.512C446.549 83.698 445.966 83.17 444.8 82.928L442.655 82.433C441.137 82.103 439.993 81.509 439.223 80.651C438.475 79.793 438.101 78.77 438.101 77.582C438.101 76.108 438.673 74.854 439.817 73.82C440.983 72.786 442.435 72.269 444.173 72.269C445.273 72.269 446.241 72.434 447.077 72.764C447.913 73.072 448.562 73.479 449.024 73.985C449.486 74.469 449.838 74.964 450.08 75.47C450.322 75.976 450.476 76.471 450.542 76.955L446.879 77.78C446.791 77.208 446.527 76.702 446.087 76.262C445.669 75.822 445.042 75.602 444.206 75.602C443.634 75.602 443.139 75.756 442.721 76.064C442.325 76.372 442.127 76.757 442.127 77.219C442.127 78.011 442.622 78.495 443.612 78.671L445.922 79.166C447.484 79.496 448.672 80.101 449.486 80.981C450.322 81.861 450.74 82.917 450.74 84.149C450.74 85.601 450.19 86.855 449.09 87.911C447.99 88.967 446.439 89.495 444.437 89.495C443.293 89.495 442.27 89.33 441.368 89C440.466 88.648 439.762 88.208 439.256 87.68C438.772 87.13 438.398 86.591 438.134 86.063C437.892 85.513 437.738 84.985 437.672 84.479ZM466.811 95.27H462.422V72.764H466.679V74.744C467.075 74.084 467.713 73.534 468.593 73.094C469.473 72.632 470.496 72.401 471.662 72.401C473.972 72.401 475.798 73.193 477.14 74.777C478.482 76.339 479.153 78.363 479.153 80.849C479.153 83.335 478.438 85.381 477.008 86.987C475.6 88.593 473.763 89.396 471.497 89.396C469.341 89.396 467.779 88.736 466.811 87.416V95.27ZM473.675 84.248C474.445 83.412 474.83 82.29 474.83 80.882C474.83 79.474 474.445 78.363 473.675 77.549C472.927 76.735 471.97 76.328 470.804 76.328C469.638 76.328 468.67 76.746 467.9 77.582C467.13 78.396 466.745 79.496 466.745 80.882C466.745 82.268 467.13 83.379 467.9 84.215C468.67 85.051 469.638 85.469 470.804 85.469C471.97 85.469 472.927 85.062 473.675 84.248ZM486.984 84.281C487.798 85.095 488.777 85.502 489.921 85.502C491.065 85.502 492.033 85.095 492.825 84.281C493.639 83.467 494.046 82.334 494.046 80.882C494.046 79.43 493.639 78.297 492.825 77.483C492.033 76.669 491.065 76.262 489.921 76.262C488.777 76.262 487.798 76.669 486.984 77.483C486.192 78.297 485.796 79.43 485.796 80.882C485.796 82.334 486.192 83.467 486.984 84.281ZM483.816 74.711C485.444 73.083 487.479 72.269 489.921 72.269C492.363 72.269 494.387 73.083 495.993 74.711C497.621 76.339 498.435 78.396 498.435 80.882C498.435 83.368 497.621 85.425 495.993 87.053C494.387 88.681 492.363 89.495 489.921 89.495C487.479 89.495 485.444 88.681 483.816 87.053C482.21 85.425 481.407 83.368 481.407 80.882C481.407 78.396 482.21 76.339 483.816 74.711ZM500.514 84.479L504.276 83.654C504.32 84.358 504.595 84.952 505.101 85.436C505.629 85.898 506.344 86.129 507.246 86.129C507.928 86.129 508.456 85.975 508.83 85.667C509.204 85.359 509.391 84.974 509.391 84.512C509.391 83.698 508.808 83.17 507.642 82.928L505.497 82.433C503.979 82.103 502.835 81.509 502.065 80.651C501.317 79.793 500.943 78.77 500.943 77.582C500.943 76.108 501.515 74.854 502.659 73.82C503.825 72.786 505.277 72.269 507.015 72.269C508.115 72.269 509.083 72.434 509.919 72.764C510.755 73.072 511.404 73.479 511.866 73.985C512.328 74.469 512.68 74.964 512.922 75.47C513.164 75.976 513.318 76.471 513.384 76.955L509.721 77.78C509.633 77.208 509.369 76.702 508.929 76.262C508.511 75.822 507.884 75.602 507.048 75.602C506.476 75.602 505.981 75.756 505.563 76.064C505.167 76.372 504.969 76.757 504.969 77.219C504.969 78.011 505.464 78.495 506.454 78.671L508.764 79.166C510.326 79.496 511.514 80.101 512.328 80.981C513.164 81.861 513.582 82.917 513.582 84.149C513.582 85.601 513.032 86.855 511.932 87.911C510.832 88.967 509.281 89.495 507.279 89.495C506.135 89.495 505.112 89.33 504.21 89C503.308 88.648 502.604 88.208 502.098 87.68C501.614 87.13 501.24 86.591 500.976 86.063C500.734 85.513 500.58 84.985 500.514 84.479ZM529.817 65.867L525.329 70.817H521.798L524.801 65.867H529.817ZM520.247 79.034H527.507C527.463 78.132 527.133 77.373 526.517 76.757C525.923 76.141 525.043 75.833 523.877 75.833C522.821 75.833 521.963 76.163 521.303 76.823C520.643 77.483 520.291 78.22 520.247 79.034ZM527.936 83.258L531.599 84.347C531.159 85.843 530.29 87.075 528.992 88.043C527.716 89.011 526.121 89.495 524.207 89.495C521.875 89.495 519.895 88.714 518.267 87.152C516.639 85.568 515.825 83.456 515.825 80.816C515.825 78.308 516.617 76.262 518.201 74.678C519.785 73.072 521.655 72.269 523.811 72.269C526.319 72.269 528.277 73.017 529.685 74.513C531.115 76.009 531.83 78.066 531.83 80.684C531.83 80.86 531.819 81.058 531.797 81.278C531.797 81.498 531.797 81.674 531.797 81.806L531.764 82.037H520.148C520.192 83.093 520.61 83.973 521.402 84.677C522.194 85.381 523.14 85.733 524.24 85.733C526.11 85.733 527.342 84.908 527.936 83.258ZM533.9 84.479L537.662 83.654C537.706 84.358 537.981 84.952 538.487 85.436C539.015 85.898 539.73 86.129 540.632 86.129C541.314 86.129 541.842 85.975 542.216 85.667C542.59 85.359 542.777 84.974 542.777 84.512C542.777 83.698 542.194 83.17 541.028 82.928L538.883 82.433C537.365 82.103 536.221 81.509 535.451 80.651C534.703 79.793 534.329 78.77 534.329 77.582C534.329 76.108 534.901 74.854 536.045 73.82C537.211 72.786 538.663 72.269 540.401 72.269C541.501 72.269 542.469 72.434 543.305 72.764C544.141 73.072 544.79 73.479 545.252 73.985C545.714 74.469 546.066 74.964 546.308 75.47C546.55 75.976 546.704 76.471 546.77 76.955L543.107 77.78C543.019 77.208 542.755 76.702 542.315 76.262C541.897 75.822 541.27 75.602 540.434 75.602C539.862 75.602 539.367 75.756 538.949 76.064C538.553 76.372 538.355 76.757 538.355 77.219C538.355 78.011 538.85 78.495 539.84 78.671L542.15 79.166C543.712 79.496 544.9 80.101 545.714 80.981C546.55 81.861 546.968 82.917 546.968 84.149C546.968 85.601 546.418 86.855 545.318 87.911C544.218 88.967 542.667 89.495 540.665 89.495C539.521 89.495 538.498 89.33 537.596 89C536.694 88.648 535.99 88.208 535.484 87.68C535 87.13 534.626 86.591 534.362 86.063C534.12 85.513 533.966 84.985 533.9 84.479ZM557.661 84.578C557.661 83.192 558.112 82.081 559.014 81.245C559.916 80.409 561.082 79.881 562.512 79.661L566.505 79.067C567.319 78.957 567.726 78.572 567.726 77.912C567.726 77.296 567.484 76.79 567 76.394C566.538 75.998 565.867 75.8 564.987 75.8C564.063 75.8 563.326 76.053 562.776 76.559C562.248 77.065 561.951 77.692 561.885 78.44L557.991 77.615C558.145 76.207 558.838 74.964 560.07 73.886C561.302 72.808 562.93 72.269 564.954 72.269C567.374 72.269 569.156 72.852 570.3 74.018C571.444 75.162 572.016 76.636 572.016 78.44V86.426C572.016 87.394 572.082 88.252 572.214 89H568.188C568.078 88.516 568.023 87.867 568.023 87.053C566.989 88.659 565.394 89.462 563.238 89.462C561.566 89.462 560.213 88.978 559.179 88.01C558.167 87.042 557.661 85.898 557.661 84.578ZM564.162 86.195C565.196 86.195 566.043 85.909 566.703 85.337C567.385 84.743 567.726 83.775 567.726 82.433V81.707L564.063 82.268C562.721 82.466 562.05 83.148 562.05 84.314C562.05 84.842 562.237 85.293 562.611 85.667C562.985 86.019 563.502 86.195 564.162 86.195ZM563.799 70.817L559.311 65.867H564.393L567.363 70.817H563.799ZM588.982 89H584.593V65.108H588.982V89ZM592.594 84.578C592.594 83.192 593.045 82.081 593.947 81.245C594.849 80.409 596.015 79.881 597.445 79.661L601.438 79.067C602.252 78.957 602.659 78.572 602.659 77.912C602.659 77.296 602.417 76.79 601.933 76.394C601.471 75.998 600.8 75.8 599.92 75.8C598.996 75.8 598.259 76.053 597.709 76.559C597.181 77.065 596.884 77.692 596.818 78.44L592.924 77.615C593.078 76.207 593.771 74.964 595.003 73.886C596.235 72.808 597.863 72.269 599.887 72.269C602.307 72.269 604.089 72.852 605.233 74.018C606.377 75.162 606.949 76.636 606.949 78.44V86.426C606.949 87.394 607.015 88.252 607.147 89H603.121C603.011 88.516 602.956 87.867 602.956 87.053C601.922 88.659 600.327 89.462 598.171 89.462C596.499 89.462 595.146 88.978 594.112 88.01C593.1 87.042 592.594 85.898 592.594 84.578ZM599.095 86.195C600.129 86.195 600.976 85.909 601.636 85.337C602.318 84.743 602.659 83.775 602.659 82.433V81.707L598.996 82.268C597.654 82.466 596.983 83.148 596.983 84.314C596.983 84.842 597.17 85.293 597.544 85.667C597.918 86.019 598.435 86.195 599.095 86.195ZM63.655 114.764L57.352 131H52.963L46.33 114.764H51.148L55.174 125.654L59.035 114.764H63.655ZM69.043 121.034H76.303C76.259 120.132 75.929 119.373 75.313 118.757C74.719 118.141 73.839 117.833 72.673 117.833C71.617 117.833 70.759 118.163 70.099 118.823C69.439 119.483 69.087 120.22 69.043 121.034ZM76.732 125.258L80.395 126.347C79.955 127.843 79.086 129.075 77.788 130.043C76.512 131.011 74.917 131.495 73.003 131.495C70.671 131.495 68.691 130.714 67.063 129.152C65.435 127.568 64.621 125.456 64.621 122.816C64.621 120.308 65.413 118.262 66.997 116.678C68.581 115.072 70.451 114.269 72.607 114.269C75.115 114.269 77.073 115.017 78.481 116.513C79.911 118.009 80.626 120.066 80.626 122.684C80.626 122.86 80.615 123.058 80.593 123.278C80.593 123.498 80.593 123.674 80.593 123.806L80.56 124.037H68.944C68.988 125.093 69.406 125.973 70.198 126.677C70.99 127.381 71.936 127.733 73.036 127.733C74.906 127.733 76.138 126.908 76.732 125.258ZM93.9823 114.698V119.12C93.5423 119.032 93.1023 118.988 92.6623 118.988C91.4083 118.988 90.3963 119.351 89.6263 120.077C88.8563 120.781 88.4713 121.947 88.4713 123.575V131H84.0823V114.764H88.3393V117.173C89.1313 115.479 90.6713 114.632 92.9593 114.632C93.2013 114.632 93.5423 114.654 93.9823 114.698ZM103.126 109.913V114.764H106.393V118.658H103.126V125.456C103.126 126.138 103.28 126.622 103.588 126.908C103.896 127.194 104.38 127.337 105.04 127.337C105.634 127.337 106.085 127.293 106.393 127.205V130.835C105.755 131.099 104.93 131.231 103.918 131.231C102.334 131.231 101.08 130.791 100.156 129.911C99.2321 129.009 98.7701 127.777 98.7701 126.215V118.658H95.8331V114.764H96.6581C97.4721 114.764 98.0881 114.533 98.5061 114.071C98.9461 113.587 99.1661 112.96 99.1661 112.19V109.913H103.126ZM114.51 131H110.121V114.764H114.51V131ZM109.593 109.451C109.593 108.703 109.857 108.065 110.385 107.537C110.913 106.987 111.551 106.712 112.299 106.712C113.047 106.712 113.685 106.976 114.213 107.504C114.741 108.032 115.005 108.681 115.005 109.451C115.005 110.177 114.741 110.804 114.213 111.332C113.685 111.86 113.047 112.124 112.299 112.124C111.551 112.124 110.913 111.86 110.385 111.332C109.857 110.804 109.593 110.177 109.593 109.451ZM126.502 118.328C125.336 118.328 124.357 118.735 123.565 119.549C122.773 120.363 122.377 121.474 122.377 122.882C122.377 124.29 122.773 125.412 123.565 126.248C124.379 127.062 125.369 127.469 126.535 127.469C127.569 127.469 128.394 127.205 129.01 126.677C129.626 126.127 130.044 125.478 130.264 124.73L134.125 126.017C133.729 127.513 132.871 128.8 131.551 129.878C130.231 130.956 128.559 131.495 126.535 131.495C124.115 131.495 122.08 130.681 120.43 129.053C118.802 127.403 117.988 125.346 117.988 122.882C117.988 120.396 118.791 118.339 120.397 116.711C122.025 115.083 124.027 114.269 126.403 114.269C128.471 114.269 130.165 114.808 131.485 115.886C132.805 116.942 133.652 118.229 134.026 119.747L130.099 121.067C129.571 119.241 128.372 118.328 126.502 118.328ZM136.298 126.578C136.298 125.192 136.749 124.081 137.651 123.245C138.553 122.409 139.719 121.881 141.149 121.661L145.142 121.067C145.956 120.957 146.363 120.572 146.363 119.912C146.363 119.296 146.121 118.79 145.637 118.394C145.175 117.998 144.504 117.8 143.624 117.8C142.7 117.8 141.963 118.053 141.413 118.559C140.885 119.065 140.588 119.692 140.522 120.44L136.628 119.615C136.782 118.207 137.475 116.964 138.707 115.886C139.939 114.808 141.567 114.269 143.591 114.269C146.011 114.269 147.793 114.852 148.937 116.018C150.081 117.162 150.653 118.636 150.653 120.44V128.426C150.653 129.394 150.719 130.252 150.851 131H146.825C146.715 130.516 146.66 129.867 146.66 129.053C145.626 130.659 144.031 131.462 141.875 131.462C140.203 131.462 138.85 130.978 137.816 130.01C136.804 129.042 136.298 127.898 136.298 126.578ZM142.799 128.195C143.833 128.195 144.68 127.909 145.34 127.337C146.022 126.743 146.363 125.775 146.363 124.433V123.707L142.7 124.268C141.358 124.466 140.687 125.148 140.687 126.314C140.687 126.842 140.874 127.293 141.248 127.667C141.622 128.019 142.139 128.195 142.799 128.195ZM159.466 131H155.077V107.108H159.466V131ZM167.366 121.034H174.626C174.582 120.132 174.252 119.373 173.636 118.757C173.042 118.141 172.162 117.833 170.996 117.833C169.94 117.833 169.082 118.163 168.422 118.823C167.762 119.483 167.41 120.22 167.366 121.034ZM175.055 125.258L178.718 126.347C178.278 127.843 177.409 129.075 176.111 130.043C174.835 131.011 173.24 131.495 171.326 131.495C168.994 131.495 167.014 130.714 165.386 129.152C163.758 127.568 162.944 125.456 162.944 122.816C162.944 120.308 163.736 118.262 165.32 116.678C166.904 115.072 168.774 114.269 170.93 114.269C173.438 114.269 175.396 115.017 176.804 116.513C178.234 118.009 178.949 120.066 178.949 122.684C178.949 122.86 178.938 123.058 178.916 123.278C178.916 123.498 178.916 123.674 178.916 123.806L178.883 124.037H167.267C167.311 125.093 167.729 125.973 168.521 126.677C169.313 127.381 170.259 127.733 171.359 127.733C173.229 127.733 174.461 126.908 175.055 125.258ZM189.569 126.578C189.569 125.192 190.02 124.081 190.922 123.245C191.824 122.409 192.99 121.881 194.42 121.661L198.413 121.067C199.227 120.957 199.634 120.572 199.634 119.912C199.634 119.296 199.392 118.79 198.908 118.394C198.446 117.998 197.775 117.8 196.895 117.8C195.971 117.8 195.234 118.053 194.684 118.559C194.156 119.065 193.859 119.692 193.793 120.44L189.899 119.615C190.053 118.207 190.746 116.964 191.978 115.886C193.21 114.808 194.838 114.269 196.862 114.269C199.282 114.269 201.064 114.852 202.208 116.018C203.352 117.162 203.924 118.636 203.924 120.44V128.426C203.924 129.394 203.99 130.252 204.122 131H200.096C199.986 130.516 199.931 129.867 199.931 129.053C198.897 130.659 197.302 131.462 195.146 131.462C193.474 131.462 192.121 130.978 191.087 130.01C190.075 129.042 189.569 127.898 189.569 126.578ZM196.07 128.195C197.104 128.195 197.951 127.909 198.611 127.337C199.293 126.743 199.634 125.775 199.634 124.433V123.707L195.971 124.268C194.629 124.466 193.958 125.148 193.958 126.314C193.958 126.842 194.145 127.293 194.519 127.667C194.893 128.019 195.41 128.195 196.07 128.195ZM195.707 112.817L191.219 107.867H196.301L199.271 112.817H195.707ZM220.89 131H216.501V107.108H220.89V131ZM224.368 111.728C224.368 111.002 224.599 110.408 225.061 109.946C225.545 109.462 226.139 109.22 226.843 109.22C227.547 109.22 228.13 109.462 228.592 109.946C229.054 110.408 229.285 111.002 229.285 111.728C229.285 112.036 229.241 112.322 229.153 112.586L227.602 118.625H226.051L224.5 112.586C224.412 112.146 224.368 111.86 224.368 111.728ZM231.238 126.578C231.238 125.192 231.689 124.081 232.591 123.245C233.493 122.409 234.659 121.881 236.089 121.661L240.082 121.067C240.896 120.957 241.303 120.572 241.303 119.912C241.303 119.296 241.061 118.79 240.577 118.394C240.115 117.998 239.444 117.8 238.564 117.8C237.64 117.8 236.903 118.053 236.353 118.559C235.825 119.065 235.528 119.692 235.462 120.44L231.568 119.615C231.722 118.207 232.415 116.964 233.647 115.886C234.879 114.808 236.507 114.269 238.531 114.269C240.951 114.269 242.733 114.852 243.877 116.018C245.021 117.162 245.593 118.636 245.593 120.44V128.426C245.593 129.394 245.659 130.252 245.791 131H241.765C241.655 130.516 241.6 129.867 241.6 129.053C240.566 130.659 238.971 131.462 236.815 131.462C235.143 131.462 233.79 130.978 232.756 130.01C231.744 129.042 231.238 127.898 231.238 126.578ZM237.739 128.195C238.773 128.195 239.62 127.909 240.28 127.337C240.962 126.743 241.303 125.775 241.303 124.433V123.707L237.64 124.268C236.298 124.466 235.627 125.148 235.627 126.314C235.627 126.842 235.814 127.293 236.188 127.667C236.562 128.019 237.079 128.195 237.739 128.195ZM254.406 131H250.017V114.764H254.406V131ZM249.489 109.451C249.489 108.703 249.753 108.065 250.281 107.537C250.809 106.987 251.447 106.712 252.195 106.712C252.943 106.712 253.581 106.976 254.109 107.504C254.637 108.032 254.901 108.681 254.901 109.451C254.901 110.177 254.637 110.804 254.109 111.332C253.581 111.86 252.943 112.124 252.195 112.124C251.447 112.124 250.809 111.86 250.281 111.332C249.753 110.804 249.489 110.177 249.489 109.451ZM274.582 107.108V128.063C274.582 129.141 274.626 130.12 274.714 131H270.523C270.413 130.45 270.358 129.823 270.358 129.119C269.984 129.801 269.39 130.351 268.576 130.769C267.784 131.187 266.86 131.396 265.804 131.396C263.494 131.396 261.591 130.593 260.095 128.987C258.621 127.359 257.884 125.313 257.884 122.849C257.884 120.451 258.61 118.438 260.062 116.81C261.536 115.182 263.406 114.368 265.672 114.368C268.004 114.368 269.533 115.039 270.259 116.381V107.108H274.582ZM262.306 122.849C262.306 124.279 262.68 125.412 263.428 126.248C264.176 127.062 265.144 127.469 266.332 127.469C267.498 127.469 268.455 127.051 269.203 126.215C269.951 125.379 270.325 124.246 270.325 122.816C270.325 121.408 269.951 120.308 269.203 119.516C268.455 118.702 267.498 118.295 266.332 118.295C265.166 118.295 264.198 118.702 263.428 119.516C262.68 120.33 262.306 121.441 262.306 122.849ZM282.544 121.034H289.804C289.76 120.132 289.43 119.373 288.814 118.757C288.22 118.141 287.34 117.833 286.174 117.833C285.118 117.833 284.26 118.163 283.6 118.823C282.94 119.483 282.588 120.22 282.544 121.034ZM290.233 125.258L293.896 126.347C293.456 127.843 292.587 129.075 291.289 130.043C290.013 131.011 288.418 131.495 286.504 131.495C284.172 131.495 282.192 130.714 280.564 129.152C278.936 127.568 278.122 125.456 278.122 122.816C278.122 120.308 278.914 118.262 280.498 116.678C282.082 115.072 283.952 114.269 286.108 114.269C288.616 114.269 290.574 115.017 291.982 116.513C293.412 118.009 294.127 120.066 294.127 122.684C294.127 122.86 294.116 123.058 294.094 123.278C294.094 123.498 294.094 123.674 294.094 123.806L294.061 124.037H282.445C282.489 125.093 282.907 125.973 283.699 126.677C284.491 127.381 285.437 127.733 286.537 127.733C288.407 127.733 289.639 126.908 290.233 125.258ZM321.214 107.108V128.063C321.214 129.141 321.258 130.12 321.346 131H317.155C317.045 130.45 316.99 129.823 316.99 129.119C316.616 129.801 316.022 130.351 315.208 130.769C314.416 131.187 313.492 131.396 312.436 131.396C310.126 131.396 308.223 130.593 306.727 128.987C305.253 127.359 304.516 125.313 304.516 122.849C304.516 120.451 305.242 118.438 306.694 116.81C308.168 115.182 310.038 114.368 312.304 114.368C314.636 114.368 316.165 115.039 316.891 116.381V107.108H321.214ZM308.938 122.849C308.938 124.279 309.312 125.412 310.06 126.248C310.808 127.062 311.776 127.469 312.964 127.469C314.13 127.469 315.087 127.051 315.835 126.215C316.583 125.379 316.957 124.246 316.957 122.816C316.957 121.408 316.583 120.308 315.835 119.516C315.087 118.702 314.13 118.295 312.964 118.295C311.798 118.295 310.83 118.702 310.06 119.516C309.312 120.33 308.938 121.441 308.938 122.849ZM324.754 111.728C324.754 111.002 324.985 110.408 325.447 109.946C325.931 109.462 326.525 109.22 327.229 109.22C327.933 109.22 328.516 109.462 328.978 109.946C329.44 110.408 329.671 111.002 329.671 111.728C329.671 112.036 329.627 112.322 329.539 112.586L327.988 118.625H326.437L324.886 112.586C324.798 112.146 324.754 111.86 324.754 111.728ZM338.97 113.543C337.518 114.885 336.792 116.799 336.792 119.285C336.792 121.771 337.518 123.696 338.97 125.06C340.422 126.402 342.127 127.073 344.085 127.073C346.065 127.073 347.781 126.402 349.233 125.06C350.685 123.696 351.411 121.771 351.411 119.285C351.411 116.799 350.685 114.885 349.233 113.543C347.781 112.179 346.065 111.497 344.085 111.497C342.127 111.497 340.422 112.179 338.97 113.543ZM332.073 119.318C332.073 115.666 333.25 112.718 335.604 110.474C337.958 108.23 340.785 107.108 344.085 107.108C347.407 107.108 350.245 108.23 352.599 110.474C354.953 112.718 356.13 115.666 356.13 119.318C356.13 122.948 354.953 125.885 352.599 128.129C350.245 130.373 347.407 131.495 344.085 131.495C340.785 131.495 337.958 130.373 335.604 128.129C333.25 125.885 332.073 122.948 332.073 119.318ZM370.671 131.495C367.305 131.495 364.467 130.373 362.157 128.129C359.847 125.885 358.692 122.948 358.692 119.318C358.692 115.71 359.858 112.773 362.19 110.507C364.544 108.241 367.349 107.108 370.605 107.108C373.597 107.108 375.995 107.867 377.799 109.385C379.625 110.903 380.802 112.729 381.33 114.863L377.04 116.216C376.71 114.896 376.017 113.785 374.961 112.883C373.905 111.959 372.453 111.497 370.605 111.497C368.691 111.497 367.008 112.179 365.556 113.543C364.126 114.907 363.411 116.832 363.411 119.318C363.411 121.694 364.115 123.575 365.523 124.961C366.953 126.347 368.669 127.04 370.671 127.04C372.497 127.04 373.949 126.567 375.027 125.621C376.127 124.675 376.864 123.553 377.238 122.255L381.495 123.542C381.253 124.488 380.857 125.412 380.307 126.314C379.779 127.216 379.086 128.063 378.228 128.855C377.37 129.647 376.281 130.285 374.961 130.769C373.663 131.253 372.233 131.495 370.671 131.495ZM396.829 131L392.242 121.991H389.866V131H385.279V107.603H394.42C396.664 107.603 398.468 108.285 399.832 109.649C401.196 111.013 401.878 112.729 401.878 114.797C401.878 116.425 401.427 117.833 400.525 119.021C399.645 120.187 398.435 120.99 396.895 121.43L401.911 131H396.829ZM389.866 118.064H393.562C394.706 118.064 395.597 117.767 396.235 117.173C396.895 116.579 397.225 115.798 397.225 114.83C397.225 113.84 396.895 113.048 396.235 112.454C395.597 111.86 394.706 111.563 393.562 111.563H389.866V118.064ZM416.929 121.034H424.189C424.145 120.132 423.815 119.373 423.199 118.757C422.605 118.141 421.725 117.833 420.559 117.833C419.503 117.833 418.645 118.163 417.985 118.823C417.325 119.483 416.973 120.22 416.929 121.034ZM424.618 125.258L428.281 126.347C427.841 127.843 426.972 129.075 425.674 130.043C424.398 131.011 422.803 131.495 420.889 131.495C418.557 131.495 416.577 130.714 414.949 129.152C413.321 127.568 412.507 125.456 412.507 122.816C412.507 120.308 413.299 118.262 414.883 116.678C416.467 115.072 418.337 114.269 420.493 114.269C423.001 114.269 424.959 115.017 426.367 116.513C427.797 118.009 428.512 120.066 428.512 122.684C428.512 122.86 428.501 123.058 428.479 123.278C428.479 123.498 428.479 123.674 428.479 123.806L428.446 124.037H416.83C416.874 125.093 417.292 125.973 418.084 126.677C418.876 127.381 419.822 127.733 420.922 127.733C422.792 127.733 424.024 126.908 424.618 125.258ZM437.38 109.913V114.764H440.647V118.658H437.38V125.456C437.38 126.138 437.534 126.622 437.842 126.908C438.15 127.194 438.634 127.337 439.294 127.337C439.888 127.337 440.339 127.293 440.647 127.205V130.835C440.009 131.099 439.184 131.231 438.172 131.231C436.588 131.231 435.334 130.791 434.41 129.911C433.486 129.009 433.024 127.777 433.024 126.215V118.658H430.087V114.764H430.912C431.726 114.764 432.342 114.533 432.76 114.071C433.2 113.587 433.42 112.96 433.42 112.19V109.913H437.38ZM467.909 107.108V128.063C467.909 129.141 467.953 130.12 468.041 131H463.85C463.74 130.45 463.685 129.823 463.685 129.119C463.311 129.801 462.717 130.351 461.903 130.769C461.111 131.187 460.187 131.396 459.131 131.396C456.821 131.396 454.918 130.593 453.422 128.987C451.948 127.359 451.211 125.313 451.211 122.849C451.211 120.451 451.937 118.438 453.389 116.81C454.863 115.182 456.733 114.368 458.999 114.368C461.331 114.368 462.86 115.039 463.586 116.381V107.108H467.909ZM455.633 122.849C455.633 124.279 456.007 125.412 456.755 126.248C457.503 127.062 458.471 127.469 459.659 127.469C460.825 127.469 461.782 127.051 462.53 126.215C463.278 125.379 463.652 124.246 463.652 122.816C463.652 121.408 463.278 120.308 462.53 119.516C461.782 118.702 460.825 118.295 459.659 118.295C458.493 118.295 457.525 118.702 456.755 119.516C456.007 120.33 455.633 121.441 455.633 122.849ZM471.449 111.728C471.449 111.002 471.68 110.408 472.142 109.946C472.626 109.462 473.22 109.22 473.924 109.22C474.628 109.22 475.211 109.462 475.673 109.946C476.135 110.408 476.366 111.002 476.366 111.728C476.366 112.036 476.322 112.322 476.234 112.586L474.683 118.625H473.132L471.581 112.586C471.493 112.146 471.449 111.86 471.449 111.728ZM484.774 131H480.154V107.603H484.774V131ZM505.985 131L504.038 125.654H494.534L492.587 131H487.769L496.745 107.603H502.025L510.935 131H505.985ZM499.286 112.652L496.052 121.496H502.52L499.286 112.652Z" fill="white"/>
<path d="M832.335 164.662C841.98 164.662 849.942 156.783 848.451 147.236C845.617 129.092 838.398 112.25 827.569 99.0009C813.334 81.5861 794.029 71.8027 773.899 71.8027C753.77 71.8027 734.464 81.5861 720.23 99.0009C709.401 112.25 702.182 129.092 699.348 147.236C697.857 156.783 705.818 164.662 715.463 164.662H773.899H832.335Z" fill="#C3E5E2"/>
<path d="M807.896 140.774C811.235 140.774 813.983 138.05 813.539 134.736C812.322 125.635 808.375 117.136 802.213 110.56C794.704 102.547 784.519 98.0449 773.899 98.0449C763.28 98.0449 753.095 102.547 745.586 110.56C739.423 117.136 735.477 125.635 734.26 134.736C733.816 138.05 736.564 140.774 739.903 140.774H773.899H807.896Z" fill="#229B90"/>
<path d="M714.546 152.55C714.546 151.993 714.095 151.541 713.539 151.541C712.982 151.541 712.531 151.993 712.531 152.55H714.546ZM714.546 164.663V152.55H712.531V164.663H714.546Z" fill="#9BD6CF"/>
<path d="M711.507 141.865C712.028 142.061 712.579 141.785 712.737 141.251C712.895 140.717 712.6 140.125 712.079 139.93L711.507 141.865ZM701.3 138.041L711.507 141.865L712.079 139.93L701.872 136.105L701.3 138.041Z" fill="#9BD6CF"/>
<path d="M772.742 83.9871C772.742 84.5446 773.194 84.9965 773.75 84.9965C774.307 84.9965 774.757 84.5446 774.757 83.9871H772.742ZM772.742 71.875V83.9871H774.757V71.875H772.742Z" fill="#9BD6CF"/>
<path d="M730.037 105.346C730.407 105.763 731.007 105.763 731.377 105.346C731.747 104.93 731.747 104.255 731.377 103.838L730.037 105.346ZM722.431 96.7816L730.037 105.346L731.377 103.838L723.77 95.2734L722.431 96.7816Z" fill="#9BD6CF"/>
<path d="M746.419 86.4082C746.626 86.9256 747.196 87.1408 747.693 86.8888C748.189 86.6368 748.423 86.0132 748.216 85.4958L746.419 86.4082ZM743.717 79.6605L746.419 86.4082L748.216 85.4958L745.514 78.748L743.717 79.6605Z" fill="#9BD6CF"/>
<path d="M713.685 122.373C714.174 122.639 714.749 122.438 714.968 121.926C715.187 121.414 714.968 120.784 714.479 120.518L713.685 122.373ZM707.763 119.16L713.685 122.373L714.479 120.518L708.557 117.305L707.763 119.16Z" fill="#9BD6CF"/>
<path d="M738.452 152.55C738.452 151.993 738 151.541 737.444 151.541C736.888 151.541 736.437 151.993 736.437 152.55H738.452ZM738.452 164.663V152.55H736.437V164.663H738.452Z" fill="#9BD6CF"/>
<path d="M726.498 157.261C726.498 156.704 726.047 156.252 725.491 156.252C724.934 156.252 724.483 156.704 724.483 157.261H726.498ZM726.498 164.663V157.261H724.483V164.663H726.498Z" fill="#9BD6CF"/>
<path d="M762.356 152.55C762.356 151.993 761.905 151.541 761.349 151.541C760.792 151.541 760.341 151.993 760.341 152.55H762.356ZM762.356 164.663V152.55H760.341V164.663H762.356Z" fill="#9BD6CF"/>
<path d="M750.404 157.261C750.404 156.704 749.953 156.252 749.397 156.252C748.84 156.252 748.389 156.704 748.389 157.261H750.404ZM750.404 164.663V157.261H748.389V164.663H750.404Z" fill="#9BD6CF"/>
<path d="M786.262 152.55C786.262 151.993 785.811 151.541 785.255 151.541C784.698 151.541 784.247 151.993 784.247 152.55H786.262ZM786.262 164.663V152.55H784.247V164.663H786.262Z" fill="#9BD6CF"/>
<path d="M774.309 157.261C774.309 156.704 773.859 156.252 773.302 156.252C772.746 156.252 772.294 156.704 772.294 157.261H774.309ZM774.309 164.663V157.261H772.294V164.663H774.309Z" fill="#9BD6CF"/>
<path d="M810.168 152.55C810.168 151.993 809.717 151.541 809.16 151.541C808.604 151.541 808.153 151.993 808.153 152.55H810.168ZM810.168 164.663V152.55H808.153V164.663H810.168Z" fill="#9BD6CF"/>
<path d="M798.215 157.261C798.215 156.704 797.764 156.252 797.208 156.252C796.651 156.252 796.2 156.704 796.2 157.261H798.215ZM798.215 164.663V157.261H796.2V164.663H798.215Z" fill="#9BD6CF"/>
<path d="M834.073 152.55C834.073 151.993 833.622 151.541 833.065 151.541C832.509 151.541 832.058 151.993 832.058 152.55H834.073ZM834.073 164.663V152.55H832.058V164.663H834.073Z" fill="#9BD6CF"/>
<path d="M822.121 157.261C822.121 156.704 821.669 156.252 821.113 156.252C820.556 156.252 820.105 156.704 820.105 157.261H822.121ZM822.121 164.663V157.261H820.105V164.663H822.121Z" fill="#9BD6CF"/>
<path d="M878.01 44.8867H808.155C803.703 44.8867 800.095 48.5019 800.095 52.9615V161.298C800.095 165.758 803.703 169.373 808.155 169.373H878.01C882.461 169.373 886.07 165.758 886.07 161.298V52.9615C886.07 48.5019 882.461 44.8867 878.01 44.8867Z" fill="white"/>
<path d="M800.095 52.9615C800.095 48.5019 803.704 44.8867 808.155 44.8867H878.01C882.461 44.8867 886.07 48.5019 886.07 52.9615V82.569H800.095V52.9615Z" fill="#FF7F5D"/>
<mask id="mask0_143_165907" style="mask-type:luminance" maskUnits="userSpaceOnUse" x="808" y="52" width="71" height="25">
<path d="M876.667 52.9141H809.499C808.757 52.9141 808.155 53.5166 808.155 54.2599V75.1197C808.155 75.8629 808.757 76.4655 809.499 76.4655H876.667C877.408 76.4655 878.01 75.8629 878.01 75.1197V54.2599C878.01 53.5166 877.408 52.9141 876.667 52.9141Z" fill="white"/>
</mask>
<g mask="url(#mask0_143_165907)">
<path d="M876.667 52.9141H809.499C808.757 52.9141 808.155 53.5166 808.155 54.2599V75.1197C808.155 75.8629 808.757 76.4655 809.499 76.4655H876.667C877.408 76.4655 878.01 75.8629 878.01 75.1197V54.2599C878.01 53.5166 877.408 52.9141 876.667 52.9141Z" fill="#FFE1D9"/>
<path d="M881.312 25.1071L830.927 45.6699L851.199 95.5238L901.585 74.961L881.312 25.1071Z" fill="#FFD2C4"/>
</g>
<path d="M820.917 92.5645H811.514C810.772 92.5645 810.17 93.167 810.17 93.9102V103.331C810.17 104.074 810.772 104.677 811.514 104.677H820.917C821.659 104.677 822.261 104.074 822.261 103.331V93.9102C822.261 93.167 821.659 92.5645 820.917 92.5645Z" fill="#ED8232"/>
<path d="M818.902 92.5645H809.499C808.757 92.5645 808.155 93.167 808.155 93.9102V103.331C808.155 104.074 808.757 104.677 809.499 104.677H818.902C819.644 104.677 820.245 104.074 820.245 103.331V93.9102C820.245 93.167 819.644 92.5645 818.902 92.5645Z" fill="#FBD283"/>
<path d="M839.724 92.5645H830.321C829.579 92.5645 828.978 93.167 828.978 93.9102V103.331C828.978 104.074 829.579 104.677 830.321 104.677H839.724C840.466 104.677 841.068 104.074 841.068 103.331V93.9102C841.068 93.167 840.466 92.5645 839.724 92.5645Z" fill="#ED8232"/>
<path d="M837.709 92.5645H828.306C827.564 92.5645 826.962 93.167 826.962 93.9102V103.331C826.962 104.074 827.564 104.677 828.306 104.677H837.709C838.451 104.677 839.053 104.074 839.053 103.331V93.9102C839.053 93.167 838.451 92.5645 837.709 92.5645Z" fill="#FBD283"/>
<path d="M858.532 92.5645H849.128C848.386 92.5645 847.785 93.167 847.785 93.9102V103.331C847.785 104.074 848.386 104.677 849.128 104.677H858.532C859.273 104.677 859.875 104.074 859.875 103.331V93.9102C859.875 93.167 859.273 92.5645 858.532 92.5645Z" fill="#ED8232"/>
<path d="M856.516 92.5645H847.113C846.371 92.5645 845.77 93.167 845.77 93.9102V103.331C845.77 104.074 846.371 104.677 847.113 104.677H856.516C857.258 104.677 857.86 104.074 857.86 103.331V93.9102C857.86 93.167 857.258 92.5645 856.516 92.5645Z" fill="#FBD283"/>
<path d="M877.339 92.5645H867.935C867.193 92.5645 866.592 93.167 866.592 93.9102V103.331C866.592 104.074 867.193 104.677 867.935 104.677H877.339C878.081 104.677 878.682 104.074 878.682 103.331V93.9102C878.682 93.167 878.081 92.5645 877.339 92.5645Z" fill="#ED8232"/>
<path d="M875.323 92.5645H865.92C865.178 92.5645 864.576 93.167 864.576 93.9102V103.331C864.576 104.074 865.178 104.677 865.92 104.677H875.323C876.065 104.677 876.666 104.074 876.666 103.331V93.9102C876.666 93.167 876.065 92.5645 875.323 92.5645Z" fill="#FBD283"/>
<path d="M820.917 108.715H811.514C810.772 108.715 810.17 109.317 810.17 110.061V119.481C810.17 120.224 810.772 120.827 811.514 120.827H820.917C821.659 120.827 822.261 120.224 822.261 119.481V110.061C822.261 109.317 821.659 108.715 820.917 108.715Z" fill="#ED8232"/>
<path d="M818.902 108.715H809.499C808.757 108.715 808.155 109.317 808.155 110.061V119.481C808.155 120.224 808.757 120.827 809.499 120.827H818.902C819.644 120.827 820.245 120.224 820.245 119.481V110.061C820.245 109.317 819.644 108.715 818.902 108.715Z" fill="#FBD283"/>
<path d="M839.724 108.715H830.321C829.579 108.715 828.978 109.317 828.978 110.061V119.481C828.978 120.224 829.579 120.827 830.321 120.827H839.724C840.466 120.827 841.068 120.224 841.068 119.481V110.061C841.068 109.317 840.466 108.715 839.724 108.715Z" fill="#ED8232"/>
<path d="M837.709 108.715H828.306C827.564 108.715 826.962 109.317 826.962 110.061V119.481C826.962 120.224 827.564 120.827 828.306 120.827H837.709C838.451 120.827 839.053 120.224 839.053 119.481V110.061C839.053 109.317 838.451 108.715 837.709 108.715Z" fill="#FBD283"/>
<path d="M858.532 108.715H849.128C848.386 108.715 847.785 109.317 847.785 110.061V119.481C847.785 120.224 848.386 120.827 849.128 120.827H858.532C859.273 120.827 859.875 120.224 859.875 119.481V110.061C859.875 109.317 859.273 108.715 858.532 108.715Z" fill="#ED8232"/>
<path d="M856.516 108.715H847.113C846.371 108.715 845.77 109.317 845.77 110.061V119.481C845.77 120.224 846.371 120.827 847.113 120.827H856.516C857.258 120.827 857.86 120.224 857.86 119.481V110.061C857.86 109.317 857.258 108.715 856.516 108.715Z" fill="#FBD283"/>
<path d="M877.339 108.715H867.935C867.193 108.715 866.592 109.317 866.592 110.061V119.481C866.592 120.224 867.193 120.827 867.935 120.827H877.339C878.081 120.827 878.682 120.224 878.682 119.481V110.061C878.682 109.317 878.081 108.715 877.339 108.715Z" fill="#ED8232"/>
<path d="M875.323 108.715H865.92C865.178 108.715 864.576 109.317 864.576 110.061V119.481C864.576 120.224 865.178 120.827 865.92 120.827H875.323C876.065 120.827 876.666 120.224 876.666 119.481V110.061C876.666 109.317 876.065 108.715 875.323 108.715Z" fill="#FBD283"/>
<path d="M820.917 124.863H811.514C810.772 124.863 810.17 125.466 810.17 126.209V135.63C810.17 136.373 810.772 136.975 811.514 136.975H820.917C821.659 136.975 822.261 136.373 822.261 135.63V126.209C822.261 125.466 821.659 124.863 820.917 124.863Z" fill="#ED8232"/>
<path d="M818.902 124.863H809.499C808.757 124.863 808.155 125.466 808.155 126.209V135.63C808.155 136.373 808.757 136.975 809.499 136.975H818.902C819.644 136.975 820.245 136.373 820.245 135.63V126.209C820.245 125.466 819.644 124.863 818.902 124.863Z" fill="#FBD283"/>
<path d="M839.724 124.863H830.321C829.579 124.863 828.978 125.466 828.978 126.209V135.63C828.978 136.373 829.579 136.975 830.321 136.975H839.724C840.466 136.975 841.068 136.373 841.068 135.63V126.209C841.068 125.466 840.466 124.863 839.724 124.863Z" fill="#ED8232"/>
<path d="M837.709 124.863H828.306C827.564 124.863 826.962 125.466 826.962 126.209V135.63C826.962 136.373 827.564 136.975 828.306 136.975H837.709C838.451 136.975 839.053 136.373 839.053 135.63V126.209C839.053 125.466 838.451 124.863 837.709 124.863Z" fill="#FBD283"/>
<path d="M858.532 124.863H849.128C848.386 124.863 847.785 125.466 847.785 126.209V135.63C847.785 136.373 848.386 136.975 849.128 136.975H858.532C859.273 136.975 859.875 136.373 859.875 135.63V126.209C859.875 125.466 859.273 124.863 858.532 124.863Z" fill="#ED8232"/>
<path d="M856.516 124.863H847.113C846.371 124.863 845.77 125.466 845.77 126.209V135.63C845.77 136.373 846.371 136.975 847.113 136.975H856.516C857.258 136.975 857.86 136.373 857.86 135.63V126.209C857.86 125.466 857.258 124.863 856.516 124.863Z" fill="#FBD283"/>
<path d="M877.339 124.863H867.935C867.193 124.863 866.592 125.466 866.592 126.209V135.63C866.592 136.373 867.193 136.975 867.935 136.975H877.339C878.081 136.975 878.682 136.373 878.682 135.63V126.209C878.682 125.466 878.081 124.863 877.339 124.863Z" fill="#ED8232"/>
<path d="M875.323 124.863H865.92C865.178 124.863 864.576 125.466 864.576 126.209V135.63C864.576 136.373 865.178 136.975 865.92 136.975H875.323C876.065 136.975 876.666 136.373 876.666 135.63V126.209C876.666 125.466 876.065 124.863 875.323 124.863Z" fill="#FBD283"/>
<path d="M839.724 141.014H830.321C829.579 141.014 828.978 141.616 828.978 142.359V151.78C828.978 152.523 829.579 153.126 830.321 153.126H839.724C840.466 153.126 841.068 152.523 841.068 151.78V142.359C841.068 141.616 840.466 141.014 839.724 141.014Z" fill="#ED8232"/>
<path d="M837.709 141.014H809.499C808.757 141.014 808.155 141.616 808.155 142.359V151.78C808.155 152.523 808.757 153.126 809.499 153.126H837.709C838.451 153.126 839.053 152.523 839.053 151.78V142.359C839.053 141.616 838.451 141.014 837.709 141.014Z" fill="#FBD283"/>
<path d="M858.532 141.014H849.128C848.386 141.014 847.785 141.616 847.785 142.359V151.78C847.785 152.523 848.386 153.126 849.128 153.126H858.532C859.273 153.126 859.875 152.523 859.875 151.78V142.359C859.875 141.616 859.273 141.014 858.532 141.014Z" fill="#ED8232"/>
<path d="M856.516 141.014H847.113C846.371 141.014 845.77 141.616 845.77 142.359V151.78C845.77 152.523 846.371 153.126 847.113 153.126H856.516C857.258 153.126 857.86 152.523 857.86 151.78V142.359C857.86 141.616 857.258 141.014 856.516 141.014Z" fill="#FBD283"/>
<path d="M878.681 141.014H864.576V153.126H878.681V141.014Z" fill="#FE805C"/>
<path d="M877.339 141.014H867.935C867.193 141.014 866.592 141.616 866.592 142.359V151.78C866.592 152.523 867.193 153.126 867.935 153.126H877.339C878.081 153.126 878.682 152.523 878.682 151.78V142.359C878.682 141.616 878.081 141.014 877.339 141.014Z" fill="#FD543A"/>
<path d="M875.323 141.014H865.92C865.178 141.014 864.576 141.616 864.576 142.359V151.78C864.576 152.523 865.178 153.126 865.92 153.126H875.323C876.065 153.126 876.666 152.523 876.666 151.78V142.359C876.666 141.616 876.065 141.014 875.323 141.014Z" fill="#FE805C"/>
<path d="M916.672 145.404L912.569 146.331C911.845 146.494 911.391 147.215 911.554 147.94L911.939 149.649C912.102 150.374 912.821 150.829 913.545 150.666L917.648 149.739C918.371 149.575 918.826 148.855 918.663 148.13L918.278 146.42C918.114 145.695 917.395 145.24 916.672 145.404Z" fill="#085C51"/>
<path d="M906.376 54.3859L907.465 58.4559C907.657 59.1739 908.393 59.5999 909.11 59.4075L913.396 58.257C914.113 58.0646 914.538 57.3266 914.346 56.6087L913.258 52.5387C913.066 51.8208 912.329 51.3947 911.612 51.5871L907.326 52.7377C906.61 52.9301 906.184 53.668 906.376 54.3859Z" fill="#085C51"/>
<path d="M954.252 132.514L957.89 131.102C958.581 130.833 959.371 131.172 959.653 131.86L960.315 133.471C960.597 134.159 960.265 134.934 959.574 135.203L955.936 136.615C955.244 136.884 954.455 136.544 954.172 135.857L953.511 134.245C953.228 133.558 953.56 132.783 954.252 132.514Z" fill="#085C51"/>
<path d="M924.691 136.696C924.154 129.967 918.646 93.2937 915.96 75.7987C912.265 73.1071 904.877 68.5314 904.877 71.7613C904.877 74.9912 911.37 114.602 914.616 134.004L915.96 136.696C919.094 139.5 925.229 143.425 924.691 136.696Z" fill="#C4E5E2"/>
<path d="M943.186 129.804C939.789 123.952 923.29 90.672 915.465 74.7637C916.823 70.5521 919.997 62.7965 921.83 65.4668C923.661 68.137 941.058 104.376 949.527 122.161L950.005 125.108C949.148 129.112 946.583 135.655 943.186 129.804Z" fill="#C4E5E2"/>
<path d="M924.586 167.113C924.486 167.772 923.594 167.901 923.313 167.297L919.959 160.085C919.768 159.676 920.026 159.2 920.472 159.135L925.014 158.48C925.46 158.416 925.842 158.801 925.775 159.247L924.586 167.113Z" fill="#E0F6F0"/>
<path d="M960.174 154.624C960.633 155.121 961.458 154.72 961.335 154.059L959.914 146.405C959.832 145.967 959.35 145.724 958.948 145.92L955.061 147.812C954.659 148.008 954.561 148.532 954.866 148.863L960.174 154.624Z" fill="#E0F6F0"/>
<path d="M913.579 134.606C913.427 133.761 913.842 132.94 914.662 132.689C915.597 132.402 917.09 132.033 919.352 131.687C921.765 131.319 923.272 131.325 924.162 131.414C924.863 131.485 925.302 132.076 925.357 132.779L927.35 158.272C927.406 158.992 927.063 159.674 926.392 159.936C925.67 160.218 924.537 160.573 922.88 160.873C921.239 161.17 920.114 161.198 919.392 161.15C918.717 161.104 918.256 160.563 918.136 159.896L913.579 134.606Z" fill="#63BBB3"/>
<path d="M950.51 121.938C950.157 121.171 949.364 120.733 948.554 120.978C947.657 121.25 946.283 121.753 944.335 122.681C942.243 123.677 941.062 124.494 940.412 125.049C939.89 125.494 939.872 126.208 940.218 126.803L953.092 148.936C953.448 149.549 954.105 149.918 954.799 149.765C955.526 149.605 956.609 149.284 958.064 148.642C959.507 148.006 960.404 147.425 960.944 146.996C961.463 146.584 961.526 145.894 961.248 145.291L950.51 121.938Z" fill="#63BBB3"/>
<path d="M911.104 142.805L908.483 143.397C907.759 143.561 907.305 144.281 907.468 145.006L909.706 154.944C909.869 155.669 910.588 156.124 911.312 155.961L913.933 155.368C914.656 155.205 915.111 154.485 914.948 153.76L912.71 143.822C912.546 143.096 911.827 142.641 911.104 142.805Z" fill="#137B6C"/>
<path d="M957.158 127.36L959.442 126.473C960.134 126.204 960.923 126.544 961.205 127.231L965.064 136.626C965.346 137.314 965.014 138.089 964.322 138.357L962.038 139.244C961.347 139.513 960.557 139.173 960.275 138.486L956.417 129.091C956.134 128.403 956.466 127.628 957.158 127.36Z" fill="#137B6C"/>
<path d="M913.609 84.7822C922.141 84.7822 929.057 78.305 929.057 70.3149C929.057 62.3249 922.141 55.8477 913.609 55.8477C905.077 55.8477 898.16 62.3249 898.16 70.3149C898.16 78.305 905.077 84.7822 913.609 84.7822Z" fill="#147A6D"/>
<path d="M913.609 78.0528C918.06 78.0528 921.669 74.5882 921.669 70.3145C921.669 66.0407 918.06 62.5762 913.609 62.5762C909.157 62.5762 905.549 66.0407 905.549 70.3145C905.549 74.5882 909.157 78.0528 913.609 78.0528Z" fill="#066051"/>
<path d="M898.326 32.8485C897.874 31.2948 898.59 29.6394 900.09 29.0366C901.196 28.5922 902.562 28.1012 903.98 27.732C905.263 27.3981 906.517 27.1597 907.577 26.9926C909.246 26.7295 910.756 27.8801 911.086 29.5394L915.014 49.2603C915.329 50.8387 914.479 52.4099 912.951 52.9066C912.18 53.1571 911.257 53.4392 910.207 53.728C908.923 54.0811 907.792 54.2643 906.89 54.3562C905.521 54.4958 904.361 53.5514 903.975 52.2279L898.326 32.8485Z" fill="#167C6F"/>
<path d="M898.326 32.8485C897.874 31.2948 898.59 29.6394 900.09 29.0366C901.196 28.5922 902.562 28.1012 903.98 27.732C905.263 27.3981 906.517 27.1597 907.577 26.9926C909.246 26.7295 910.756 27.8801 911.086 29.5394L915.014 49.2603C915.329 50.8387 914.479 52.4099 912.951 52.9066C912.18 53.1571 911.257 53.4392 910.207 53.728C908.923 54.0811 907.792 54.2643 906.89 54.3562C905.521 54.4958 904.361 53.5514 903.975 52.2279L898.326 32.8485Z" fill="black" fill-opacity="0.2"/>
</g>
<defs>
<clipPath id="clip0_143_165907">
<rect width="1001" height="205" fill="white"/>
</clipPath>
</defs>
</svg>
